<?xml version="1.0" standalone="no"?>
<!DOCTYPE svg PUBLIC "-//W3C//DTD SVG 20010904//EN"
 "http://www.w3.org/TR/2001/REC-SVG-20010904/DTD/svg10.dtd">
<svg version="1.0" xmlns="http://www.w3.org/2000/svg"
 width="1164.000000pt" height="214.000000pt" viewBox="0 0 1164.000000 214.000000"
 preserveAspectRatio="xMidYMid meet">

<g transform="translate(0.000000,214.000000) scale(0.100000,-0.100000)"
fill="#000000" stroke="none">
<path d="M387 1939 c-62 -14 -109 -44 -163 -100 -93 -99 -89 -68 -89 -749 l0
-595 26 -56 c47 -100 150 -180 251 -195 24 -3 65 -12 92 -20 69 -19 1397 -21
1439 -1 l27 12 -2 150 -3 150 -62 3 c-45 2 -63 7 -65 18 -3 13 -68 15 -533 15
-291 -1 -538 -1 -547 -1 -10 0 -18 -7 -18 -15 0 -23 -131 -21 -153 3 -22 24
-20 286 3 320 l15 22 682 0 683 0 0 149 c0 82 -3 156 -6 165 -5 12 -21 16 -65
16 -46 0 -59 3 -59 15 0 13 -68 15 -550 15 -482 0 -550 -2 -550 -15 0 -12 -14
-15 -70 -15 l-70 0 0 175 0 175 688 1 c378 0 678 4 668 8 -18 7 -18 8 -3 14
15 6 17 24 17 144 -1 165 -4 173 -79 173 -39 0 -51 4 -51 15 0 13 -85 15 -707
14 -390 -1 -725 -5 -746 -10z"/>
<path d="M2360 1231 c0 -714 0 -720 22 -776 41 -108 148 -195 258 -211 25 -3
67 -12 94 -20 40 -11 179 -14 737 -14 378 0 694 3 703 6 14 5 16 29 16 165 l0
159 -61 0 c-50 0 -62 3 -65 18 -5 16 -38 17 -546 15 -477 -2 -543 -4 -550 -18
-9 -15 -99 -22 -132 -9 -14 6 -16 75 -16 680 0 655 -1 674 -19 684 -11 5 -40
10 -65 10 -34 0 -46 4 -46 15 0 13 -25 15 -165 15 l-165 0 0 -719z"/>
<path d="M3395 1681 c-102 -7 -137 -22 -175 -79 l-25 -36 0 -336 0 -336 27
-41 c17 -26 45 -49 75 -64 47 -24 53 -24 398 -27 l350 -3 34 23 c73 49 75 58
82 276 3 108 4 202 2 209 -3 7 -18 18 -34 25 -16 7 -29 16 -29 20 0 5 -121 8
-270 8 l-270 0 0 -90 0 -90 35 0 c19 0 35 -4 35 -10 0 -6 69 -11 183 -12 100
-1 165 -3 145 -5 l-38 -4 0 -80 0 -79 -204 0 c-126 0 -207 -4 -211 -10 -3 -5
-22 -10 -41 -10 l-34 0 2 278 3 277 350 5 c193 3 346 6 340 8 -5 1 3 13 18 27
47 44 31 135 -23 135 -10 0 -20 6 -22 13 -4 9 -75 12 -309 13 -167 0 -344 -2
-394 -5z"/>
<path d="M4574 1681 c-77 -5 -96 -10 -126 -33 -67 -51 -68 -58 -68 -426 0
-326 0 -329 23 -363 30 -45 77 -75 138 -88 30 -7 180 -11 370 -11 356 0 355 0
406 67 l28 36 3 336 c2 333 2 336 -20 375 -23 38 -67 68 -148 97 -39 14 -452
21 -606 10z m591 -201 c-3 -5 -17 -10 -30 -10 l-25 0 -2 -257 -3 -258 -200 -3
c-113 -1 -204 -7 -209 -12 -6 -6 -25 -10 -43 -10 l-33 0 0 280 0 280 276 0
c181 0 273 -3 269 -10z"/>
<path d="M5733 1683 l-173 -3 0 -454 0 -453 61 -7 c34 -3 91 -6 125 -6 l64 0
0 180 0 180 58 -1 c32 0 49 -3 40 -7 -15 -6 14 -39 146 -171 146 -146 168
-164 207 -172 61 -11 272 -11 264 0 -3 5 -1 12 5 16 11 7 14 103 4 129 -4 10
-18 16 -35 16 -16 0 -29 5 -29 10 0 6 -14 10 -31 10 -17 0 -28 -4 -24 -10 4
-6 -6 -10 -24 -10 -24 0 -46 17 -120 93 l-91 92 118 5 c107 5 122 8 159 32 67
44 83 91 83 241 0 85 -5 139 -14 160 -16 40 -77 95 -114 103 -15 3 -38 10 -52
17 -26 12 -314 16 -627 10z m617 -203 c0 -5 -14 -10 -31 -10 l-30 0 1 -62 c1
-35 1 -69 1 -75 -1 -10 -48 -13 -201 -13 -127 0 -200 -4 -200 -10 0 -5 -18
-10 -40 -10 l-40 0 0 95 0 95 270 0 c173 0 270 -4 270 -10z"/>
<path d="M6760 1682 c-6 -2 -10 -40 -10 -88 l0 -84 34 0 c19 0 38 -4 41 -10 4
-6 73 -10 176 -10 106 0 169 -4 169 -10 0 -5 -11 -10 -25 -10 l-25 0 -2 -257
-3 -258 -182 -3 -183 -2 0 -89 0 -88 61 -7 c34 -3 252 -6 485 -6 l424 0 5 23
c4 13 5 50 3 82 -3 60 -3 60 -35 63 -18 2 -33 7 -33 13 0 5 -48 9 -110 9 -67
0 -110 -4 -110 -10 0 -5 -18 -10 -40 -10 l-40 0 2 278 3 277 181 5 180 5 0 80
-1 80 -30 3 c-16 2 -33 9 -37 15 -5 9 -124 12 -448 12 -242 0 -444 -1 -450 -3z"/>
<path d="M8018 1683 l-78 -4 0 -84 0 -85 35 0 c19 0 35 -4 35 -10 0 -6 65 -10
175 -10 110 0 175 -4 175 -10 0 -5 -13 -10 -30 -10 l-30 0 0 -351 0 -352 45 5
c24 3 42 2 39 -3 -3 -5 31 -9 74 -9 78 0 80 1 87 27 3 15 6 144 5 287 -1 144
-1 296 -1 339 l1 77 180 0 180 0 0 85 0 85 -27 0 c-16 0 -36 7 -47 15 -15 12
-81 14 -380 13 -198 -1 -396 -3 -438 -5z"/>
<path d="M10509 1681 c-95 -7 -121 -19 -166 -78 l-28 -36 -3 -397 -3 -397 62
-7 c34 -3 88 -6 119 -6 51 0 58 2 64 23 3 12 6 176 6 365 l0 342 85 0 c47 0
85 -4 85 -9 0 -5 -12 -11 -27 -13 l-28 -3 -3 -339 c-1 -189 2 -344 7 -349 5
-5 61 -11 125 -14 l116 -6 2 364 3 364 88 3 c55 2 87 -1 87 -8 0 -5 -13 -10
-30 -10 l-30 0 0 -349 0 -348 61 -7 c34 -3 88 -6 120 -6 53 0 59 2 64 23 4 13
5 187 3 387 -3 322 -5 369 -20 396 -25 45 -73 82 -116 90 -20 4 -43 11 -51 17
-14 12 -440 17 -592 8z"/>
<path d="M9120 1226 l0 -453 61 -7 c84 -8 189 -8 188 2 -1 4 -1 85 0 180 l1
172 283 -1 c155 -1 264 -5 242 -8 l-40 -6 0 -165 0 -165 28 -3 c16 -2 35 2 43
9 11 9 14 8 14 -5 0 -24 127 -23 146 2 11 13 13 104 14 438 0 445 0 444 -47
444 -13 0 -23 5 -23 10 0 6 -37 10 -90 10 l-90 0 0 -180 0 -180 -205 0 c-130
0 -205 -4 -205 -10 0 -5 -16 -10 -35 -10 l-35 0 -2 178 -3 177 -32 3 c-18 2
-33 7 -33 13 0 5 -40 9 -90 9 l-90 0 0 -454z"/>
</g>
</svg>
